<mxfile host="65bd71144e" scale="5" border="10">
    <diagram id="8L9aVejFhc21wHGrLeon" name="ページ1">
        <mxGraphModel dx="4577" dy="4267" grid="1" gridSize="10" guides="1" tooltips="1" connect="1" arrows="1" fold="1" page="1" pageScale="1" pageWidth="1169" pageHeight="827" background="#ffffff" math="0" shadow="0">
            <root>
                <mxCell id="0"/>
                <mxCell id="1" parent="0"/>
                <mxCell id="72" style="edgeStyle=none;html=1;endArrow=open;endFill=0;startArrow=cross;startFill=0;endSize=12;startSize=12;" parent="1" source="6" target="8" edge="1">
                    <mxGeometry relative="1" as="geometry"/>
                </mxCell>
                <mxCell id="77" style="edgeStyle=orthogonalEdgeStyle;rounded=0;html=1;entryX=0;entryY=0.5;entryDx=0;entryDy=0;endArrow=open;endFill=0;startArrow=cross;startFill=0;endSize=12;startSize=12;" parent="1" source="6" target="33" edge="1">
                    <mxGeometry relative="1" as="geometry"/>
                </mxCell>
                <mxCell id="6" value="&lt;p style=&quot;margin:0px;margin-top:4px;text-align:center;&quot;&gt;&lt;i&gt;&amp;lt;&amp;lt;control&amp;gt;&amp;gt;&lt;/i&gt;&lt;br&gt;&lt;b&gt;DiaryController&lt;/b&gt;&lt;/p&gt;&lt;hr size=&quot;1&quot;&gt;&lt;p style=&quot;margin:0px;margin-left:4px;&quot;&gt;+&amp;nbsp;&lt;u&gt;max_body_length = 500&lt;/u&gt;&lt;/p&gt;&lt;hr size=&quot;1&quot;&gt;&lt;p style=&quot;margin:0px;margin-left:4px;&quot;&gt;+ __init__(self) -&amp;gt; None&lt;/p&gt;&lt;p style=&quot;margin:0px;margin-left:4px;&quot;&gt;+ create_diary(self, user_id: int, body: str) -&amp;gt; bool&lt;/p&gt;&lt;p style=&quot;margin:0px;margin-left:4px;&quot;&gt;+ edit_diary(self, diary_id: int, new_body: str) -&amp;gt; bool&lt;/p&gt;&lt;p style=&quot;margin:0px;margin-left:4px;&quot;&gt;+ delete_diary(self, diary_id: int) -&amp;gt; None&lt;/p&gt;&lt;p style=&quot;margin:0px;margin-left:4px;&quot;&gt;+ is_diary_owner(self, diary_id: int, user_id: int) -&amp;gt; bool&lt;/p&gt;&lt;p style=&quot;margin:0px;margin-left:4px;&quot;&gt;+ check_body_length(self, body: str) -&amp;gt; bool&lt;/p&gt;&lt;p style=&quot;margin:0px;margin-left:4px;&quot;&gt;+ get_diary(self, diary_id: str) -&amp;gt; Diary&amp;nbsp;&lt;/p&gt;&lt;p style=&quot;margin:0px;margin-left:4px;&quot;&gt;+ get_user_diaries(self, user_id) -&amp;gt; list&lt;/p&gt;&lt;p style=&quot;margin:0px;margin-left:4px;&quot;&gt;+ get_all_diaries(self) -&amp;gt; list&lt;/p&gt;" style="verticalAlign=top;align=left;overflow=fill;fontSize=12;fontFamily=Helvetica;html=1;" parent="1" vertex="1">
                    <mxGeometry x="352.5" y="-230" width="305" height="210" as="geometry"/>
                </mxCell>
                <mxCell id="115" style="edgeStyle=orthogonalEdgeStyle;html=1;startArrow=none;startFill=0;endArrow=block;endFill=0;startSize=12;endSize=12;rounded=0;exitX=0.25;exitY=0;exitDx=0;exitDy=0;" edge="1" parent="1" source="8" target="103">
                    <mxGeometry relative="1" as="geometry">
                        <Array as="points">
                            <mxPoint x="457" y="60"/>
                            <mxPoint x="-570" y="60"/>
                        </Array>
                    </mxGeometry>
                </mxCell>
                <mxCell id="8" value="&lt;p style=&quot;margin:0px;margin-top:4px;text-align:center;&quot;&gt;&lt;i&gt;&amp;lt;&amp;lt;entity&amp;gt;&amp;gt;&lt;/i&gt;&lt;br&gt;&lt;b&gt;Diary&lt;/b&gt;&lt;/p&gt;&lt;hr size=&quot;1&quot;&gt;&lt;p style=&quot;margin:0px;margin-left:4px;&quot;&gt;+ id: int&lt;/p&gt;&lt;p style=&quot;margin:0px;margin-left:4px;&quot;&gt;+ user_id: int&lt;/p&gt;&lt;p style=&quot;margin:0px;margin-left:4px;&quot;&gt;+ create_at: DateTime&lt;/p&gt;&lt;p style=&quot;margin:0px;margin-left:4px;&quot;&gt;+ update_at: DateTime&lt;/p&gt;&lt;p style=&quot;margin:0px;margin-left:4px;&quot;&gt;+ body: str&lt;/p&gt;&lt;p style=&quot;margin:0px;margin-left:4px;&quot;&gt;+ response: str&lt;/p&gt;&lt;p style=&quot;margin:0px;margin-left:4px;&quot;&gt;+ emotion: str&lt;/p&gt;&lt;p style=&quot;margin:0px;margin-left:4px;&quot;&gt;+ emotion_degree: int&lt;/p&gt;&lt;hr size=&quot;1&quot;&gt;&lt;p style=&quot;margin:0px;margin-left:4px;&quot;&gt;&lt;br&gt;&lt;/p&gt;" style="verticalAlign=top;align=left;overflow=fill;fontSize=12;fontFamily=Helvetica;html=1;" parent="1" vertex="1">
                    <mxGeometry x="410" y="90" width="190" height="200" as="geometry"/>
                </mxCell>
                <mxCell id="113" style="edgeStyle=orthogonalEdgeStyle;html=1;startArrow=none;startFill=0;endArrow=block;endFill=0;startSize=12;endSize=12;rounded=0;exitX=0;exitY=0.75;exitDx=0;exitDy=0;" edge="1" parent="1" source="9" target="103">
                    <mxGeometry relative="1" as="geometry">
                        <Array as="points">
                            <mxPoint x="-530" y="225"/>
                        </Array>
                    </mxGeometry>
                </mxCell>
                <mxCell id="9" value="&lt;p style=&quot;margin:0px;margin-top:4px;text-align:center;&quot;&gt;&lt;i&gt;&amp;lt;&amp;lt;entity&amp;gt;&amp;gt;&lt;/i&gt;&lt;br&gt;&lt;b&gt;User&lt;/b&gt;&lt;/p&gt;&lt;hr size=&quot;1&quot;&gt;&lt;p style=&quot;margin:0px;margin-left:4px;&quot;&gt;+ id: int&lt;/p&gt;&lt;p style=&quot;margin:0px;margin-left:4px;&quot;&gt;+ username: str&lt;/p&gt;&lt;p style=&quot;margin:0px;margin-left:4px;&quot;&gt;+ password:str&lt;/p&gt;&lt;hr size=&quot;1&quot;&gt;&lt;p style=&quot;margin:0px;margin-left:4px;&quot;&gt;&lt;br&gt;&lt;/p&gt;" style="verticalAlign=top;align=left;overflow=fill;fontSize=12;fontFamily=Helvetica;html=1;" parent="1" vertex="1">
                    <mxGeometry x="90" y="120" width="190" height="140" as="geometry"/>
                </mxCell>
                <mxCell id="114" style="edgeStyle=orthogonalEdgeStyle;html=1;startArrow=none;startFill=0;endArrow=block;endFill=0;startSize=12;endSize=12;rounded=0;exitX=0;exitY=0.25;exitDx=0;exitDy=0;" edge="1" parent="1" source="31" target="103">
                    <mxGeometry relative="1" as="geometry">
                        <Array as="points">
                            <mxPoint x="90" y="520"/>
                        </Array>
                    </mxGeometry>
                </mxCell>
                <mxCell id="31" value="&lt;p style=&quot;margin:0px;margin-top:4px;text-align:center;&quot;&gt;&lt;i&gt;&amp;lt;&amp;lt;entity&amp;gt;&amp;gt;&lt;/i&gt;&lt;br&gt;&lt;b&gt;Chat&lt;/b&gt;&lt;/p&gt;&lt;hr size=&quot;1&quot;&gt;&lt;p style=&quot;margin:0px;margin-left:4px;&quot;&gt;+ id: int&lt;/p&gt;&lt;p style=&quot;margin:0px;margin-left:4px;&quot;&gt;+ user_id: int&lt;/p&gt;&lt;p style=&quot;margin:0px;margin-left:4px;&quot;&gt;+ role: str&lt;/p&gt;&lt;p style=&quot;margin:0px;margin-left:4px;&quot;&gt;+ message: str&lt;/p&gt;&lt;p style=&quot;margin:0px;margin-left:4px;&quot;&gt;+ time: DateTime&lt;/p&gt;&lt;hr size=&quot;1&quot;&gt;&lt;p style=&quot;margin:0px;margin-left:4px;&quot;&gt;&lt;br&gt;&lt;/p&gt;" style="verticalAlign=top;align=left;overflow=fill;fontSize=12;fontFamily=Helvetica;html=1;" parent="1" vertex="1">
                    <mxGeometry x="90" y="480" width="190" height="140" as="geometry"/>
                </mxCell>
                <mxCell id="76" style="edgeStyle=orthogonalEdgeStyle;rounded=0;html=1;endArrow=cross;endFill=0;startArrow=open;startFill=0;endSize=12;startSize=12;" parent="1" source="32" target="33" edge="1">
                    <mxGeometry relative="1" as="geometry"/>
                </mxCell>
                <mxCell id="32" value="&lt;p style=&quot;margin:0px;margin-top:4px;text-align:center;&quot;&gt;&lt;i&gt;&amp;lt;&amp;lt;entity&amp;gt;&amp;gt;&lt;/i&gt;&lt;br&gt;&lt;b&gt;EmotionAI&lt;/b&gt;&lt;/p&gt;&lt;hr size=&quot;1&quot;&gt;&lt;p style=&quot;margin:0px;margin-left:4px;&quot;&gt;+ &lt;u&gt;gpt_model = &quot;gpt-3.5-turbo&quot;&lt;/u&gt;&lt;/p&gt;&lt;p style=&quot;margin:0px;margin-left:4px;&quot;&gt;+&amp;nbsp;&lt;u&gt;num_messages = 4&lt;/u&gt;&lt;/p&gt;&lt;p style=&quot;margin:0px;margin-left:4px;&quot;&gt;+&amp;nbsp;&lt;u&gt;diary_role = &quot;You are a psychology counselor. You are replying to the user's diary.&quot;&lt;/u&gt;&lt;/p&gt;&lt;p style=&quot;margin:0px;margin-left:4px;&quot;&gt;+&amp;nbsp;&lt;u&gt;chat_role = &quot;You are a psychology counselor.&quot;&lt;/u&gt;&lt;/p&gt;&lt;p style=&quot;margin:0px;margin-left:4px;&quot;&gt;+&amp;nbsp;&lt;u&gt;analysis_role = &quot;&quot;&quot;&lt;/u&gt;&lt;/p&gt;&lt;p style=&quot;margin:0px;margin-left:4px;&quot;&gt;&lt;span style=&quot;white-space: pre;&quot;&gt;&#9;&lt;/span&gt;&lt;u&gt;You are a psychology counselor designed to output JSON.&lt;/u&gt;&lt;/p&gt;&lt;p style=&quot;margin:0px;margin-left:4px;&quot;&gt;&amp;nbsp; &amp;nbsp; &amp;nbsp; &amp;nbsp; &lt;u&gt;You are analyzing the user's diary.&lt;/u&gt;&lt;/p&gt;&lt;p style=&quot;margin:0px;margin-left:4px;&quot;&gt;&amp;nbsp; &amp;nbsp; &amp;nbsp; &amp;nbsp;&amp;nbsp;&lt;/p&gt;&lt;p style=&quot;margin:0px;margin-left:4px;&quot;&gt;&amp;nbsp; &amp;nbsp; &amp;nbsp; &amp;nbsp; &lt;u&gt;Please analyze the user's diary and output the emotion and the degree of the emotion.&lt;/u&gt;&lt;/p&gt;&lt;p style=&quot;margin:0px;margin-left:4px;&quot;&gt;&amp;nbsp; &amp;nbsp; &amp;nbsp; &amp;nbsp; &lt;u&gt;The emotion is a string(neutral, happy, sad, angry, surprised, afraid).&lt;/u&gt;&lt;/p&gt;&lt;p style=&quot;margin:0px;margin-left:4px;&quot;&gt;&amp;nbsp; &amp;nbsp; &amp;nbsp; &amp;nbsp; &lt;u&gt;the degree of the emotion is an integer(0 to 100, 0 is a bad day, 100 is a very good day).&lt;/u&gt;&lt;/p&gt;&lt;p style=&quot;margin:0px;margin-left:4px;&quot;&gt;&amp;nbsp; &amp;nbsp; &amp;nbsp; &amp;nbsp;&amp;nbsp;&lt;/p&gt;&lt;p style=&quot;margin:0px;margin-left:4px;&quot;&gt;&amp;nbsp; &amp;nbsp; &amp;nbsp; &amp;nbsp; &lt;u&gt;example:&lt;/u&gt;&lt;/p&gt;&lt;p style=&quot;margin:0px;margin-left:4px;&quot;&gt;&amp;nbsp; &amp;nbsp; &amp;nbsp; &amp;nbsp; &lt;u&gt;{&quot;emotion&quot;: strings, &quot;emotion_degree&quot;: integer}&lt;/u&gt;&lt;/p&gt;&lt;p style=&quot;margin:0px;margin-left:4px;&quot;&gt;&lt;span style=&quot;white-space: pre;&quot;&gt;&#9;&lt;/span&gt;&lt;u&gt;&quot;&quot;&quot;&lt;/u&gt;&lt;/p&gt;&lt;hr size=&quot;1&quot;&gt;&lt;p style=&quot;margin:0px;margin-left:4px;&quot;&gt;+ analyze_diary(self, body: str) -&amp;gt; tuple[str, str, str]&lt;/p&gt;&lt;p style=&quot;margin:0px;margin-left:4px;&quot;&gt;+ generate_diary_response(self, body: str) -&amp;gt; str&amp;nbsp;&lt;/p&gt;&lt;p style=&quot;margin:0px;margin-left:4px;&quot;&gt;+ generate_analysis_response(self, body: str) -&amp;gt; tuple[str, str]&amp;nbsp;&lt;/p&gt;&lt;p style=&quot;margin:0px;margin-left:4px;&quot;&gt;+ generate_chat_response(self, messages: list[str]) -&amp;gt; str&lt;/p&gt;" style="verticalAlign=top;align=left;overflow=fill;fontSize=12;fontFamily=Helvetica;html=1;" parent="1" vertex="1">
                    <mxGeometry x="418" y="375" width="540" height="350" as="geometry"/>
                </mxCell>
                <mxCell id="79" style="rounded=0;html=1;entryX=1;entryY=0.5;entryDx=0;entryDy=0;endArrow=open;endFill=0;startArrow=cross;startFill=0;endSize=12;startSize=12;" parent="1" source="33" target="8" edge="1">
                    <mxGeometry relative="1" as="geometry"/>
                </mxCell>
                <mxCell id="33" value="&lt;p style=&quot;margin:0px;margin-top:4px;text-align:center;&quot;&gt;&lt;i&gt;&amp;lt;&amp;lt;control&amp;gt;&amp;gt;&lt;/i&gt;&lt;br&gt;&lt;b&gt;AnalysisController&lt;/b&gt;&lt;/p&gt;&lt;hr size=&quot;1&quot;&gt;&lt;p style=&quot;margin:0px;margin-left:4px;&quot;&gt;&lt;br&gt;&lt;/p&gt;&lt;hr size=&quot;1&quot;&gt;&lt;p style=&quot;margin:0px;margin-left:4px;&quot;&gt;+ __init__(self) -&amp;gt; None&lt;/p&gt;&lt;p style=&quot;margin:0px;margin-left:4px;&quot;&gt;+ analyze_diary(self, diary_id: int) -&amp;gt; None&lt;/p&gt;&lt;p style=&quot;margin:0px;margin-left:4px;&quot;&gt;+ analysis_result(self, user_id: int) -&amp;gt; tuple[str, str]&lt;/p&gt;" style="verticalAlign=top;align=left;overflow=fill;fontSize=12;fontFamily=Helvetica;html=1;" parent="1" vertex="1">
                    <mxGeometry x="1022.5" y="-195" width="285" height="140" as="geometry"/>
                </mxCell>
                <mxCell id="74" style="edgeStyle=orthogonalEdgeStyle;html=1;endArrow=open;endFill=0;rounded=0;startArrow=cross;startFill=0;endSize=12;startSize=12;" parent="1" source="34" target="31" edge="1">
                    <mxGeometry relative="1" as="geometry">
                        <Array as="points">
                            <mxPoint x="-220" y="500"/>
                        </Array>
                    </mxGeometry>
                </mxCell>
                <mxCell id="78" style="edgeStyle=orthogonalEdgeStyle;html=1;rounded=0;endArrow=open;endFill=0;startArrow=cross;startFill=0;endSize=12;startSize=12;" parent="1" source="34" target="32" edge="1">
                    <mxGeometry relative="1" as="geometry">
                        <Array as="points">
                            <mxPoint x="-270" y="690"/>
                            <mxPoint x="505" y="690"/>
                        </Array>
                    </mxGeometry>
                </mxCell>
                <mxCell id="34" value="&lt;p style=&quot;margin:0px;margin-top:4px;text-align:center;&quot;&gt;&lt;i&gt;&amp;lt;&amp;lt;control&amp;gt;&amp;gt;&lt;/i&gt;&lt;br&gt;&lt;b&gt;ChatController&lt;/b&gt;&lt;/p&gt;&lt;hr size=&quot;1&quot;&gt;&lt;p style=&quot;margin:0px;margin-left:4px;&quot;&gt;+&amp;nbsp;&lt;u&gt;max_message_length = 200&lt;/u&gt;&lt;/p&gt;&lt;hr size=&quot;1&quot;&gt;&lt;p style=&quot;margin:0px;margin-left:4px;&quot;&gt;+ __init__(self) -&amp;gt; None&lt;/p&gt;&lt;p style=&quot;margin:0px;margin-left:4px;&quot;&gt;+ send_message(self, user_id: int, message: str) -&amp;gt; bool&amp;nbsp;&lt;/p&gt;&lt;p style=&quot;margin:0px;margin-left:4px;&quot;&gt;+ get_user_chat(self, user_id: int) -&amp;gt; list&lt;/p&gt;&lt;p style=&quot;margin:0px;margin-left:4px;&quot;&gt;+ delete_chat(self, user_id: int) -&amp;gt; None&lt;/p&gt;" style="verticalAlign=top;align=left;overflow=fill;fontSize=12;fontFamily=Helvetica;html=1;" parent="1" vertex="1">
                    <mxGeometry x="-425" y="-170" width="320" height="140" as="geometry"/>
                </mxCell>
                <mxCell id="71" style="edgeStyle=none;html=1;endArrow=open;endFill=0;startArrow=cross;startFill=0;endSize=12;startSize=12;" parent="1" source="35" target="9" edge="1">
                    <mxGeometry relative="1" as="geometry"/>
                </mxCell>
                <mxCell id="35" value="&lt;p style=&quot;margin:0px;margin-top:4px;text-align:center;&quot;&gt;&lt;i&gt;&amp;lt;&amp;lt;control&amp;gt;&amp;gt;&lt;/i&gt;&lt;br&gt;&lt;b&gt;UserController&lt;/b&gt;&lt;/p&gt;&lt;hr size=&quot;1&quot;&gt;&lt;p style=&quot;margin:0px;margin-left:4px;&quot;&gt;&lt;br&gt;&lt;/p&gt;&lt;hr size=&quot;1&quot;&gt;&lt;p style=&quot;margin:0px;margin-left:4px;&quot;&gt;+ sign_up(self, username: str, password: str) -&amp;gt; bool&lt;/p&gt;&lt;p style=&quot;margin:0px;margin-left:4px;&quot;&gt;+ login(self, username: str, password: str) -&amp;gt; bool&lt;/p&gt;&lt;p style=&quot;margin:0px;margin-left:4px;&quot;&gt;+ logout(self) -&amp;gt; None&lt;/p&gt;&lt;p style=&quot;margin:0px;margin-left:4px;&quot;&gt;+ user_load_controll(self, user_id: int) -&amp;gt; User&lt;/p&gt;" style="verticalAlign=top;align=left;overflow=fill;fontSize=12;fontFamily=Helvetica;html=1;" parent="1" vertex="1">
                    <mxGeometry x="40" y="-170" width="290" height="140" as="geometry"/>
                </mxCell>
                <mxCell id="80" style="edgeStyle=none;rounded=0;html=1;endArrow=open;endFill=0;startArrow=cross;startFill=0;endSize=12;startSize=12;" parent="1" source="36" target="35" edge="1">
                    <mxGeometry relative="1" as="geometry"/>
                </mxCell>
                <mxCell id="81" style="edgeStyle=none;rounded=0;html=1;endArrow=open;endFill=0;startArrow=cross;startFill=0;endSize=12;startSize=12;" parent="1" source="37" target="35" edge="1">
                    <mxGeometry relative="1" as="geometry"/>
                </mxCell>
                <mxCell id="82" style="edgeStyle=none;rounded=0;html=1;endArrow=open;endFill=0;startArrow=cross;startFill=0;endSize=12;startSize=12;" parent="1" source="38" target="35" edge="1">
                    <mxGeometry relative="1" as="geometry"/>
                </mxCell>
                <mxCell id="118" style="edgeStyle=orthogonalEdgeStyle;rounded=0;html=1;exitX=0.5;exitY=0;exitDx=0;exitDy=0;startArrow=none;startFill=0;endArrow=block;endFill=0;startSize=12;endSize=12;" edge="1" parent="1" source="39" target="102">
                    <mxGeometry relative="1" as="geometry">
                        <Array as="points">
                            <mxPoint x="-265" y="-1560"/>
                        </Array>
                    </mxGeometry>
                </mxCell>
                <mxCell id="39" value="&lt;p style=&quot;margin:0px;margin-top:4px;text-align:center;&quot;&gt;&lt;i&gt;&amp;lt;&amp;lt;boundary&amp;gt;&amp;gt;&lt;/i&gt;&lt;br&gt;&lt;b&gt;IndexView&lt;/b&gt;&lt;/p&gt;&lt;hr size=&quot;1&quot;&gt;&lt;p style=&quot;margin:0px;margin-left:4px;&quot;&gt;&lt;br&gt;&lt;/p&gt;&lt;hr size=&quot;1&quot;&gt;&lt;p style=&quot;border-color: var(--border-color); margin: 0px 0px 0px 4px;&quot;&gt;+ get(self) -&amp;gt; str&lt;/p&gt;" style="verticalAlign=top;align=left;overflow=fill;fontSize=12;fontFamily=Helvetica;html=1;" parent="1" vertex="1">
                    <mxGeometry x="-360" y="-760" width="190" height="140" as="geometry"/>
                </mxCell>
                <mxCell id="84" style="edgeStyle=none;rounded=0;html=1;endArrow=open;endFill=0;startArrow=cross;startFill=0;endSize=12;startSize=12;" parent="1" source="40" target="6" edge="1">
                    <mxGeometry relative="1" as="geometry"/>
                </mxCell>
                <mxCell id="122" style="edgeStyle=orthogonalEdgeStyle;rounded=0;html=1;startArrow=none;startFill=0;endArrow=block;endFill=0;startSize=12;endSize=12;" edge="1" parent="1" source="40" target="102">
                    <mxGeometry relative="1" as="geometry">
                        <Array as="points">
                            <mxPoint x="540" y="-1450"/>
                            <mxPoint x="70" y="-1450"/>
                        </Array>
                    </mxGeometry>
                </mxCell>
                <mxCell id="40" value="&lt;p style=&quot;margin:0px;margin-top:4px;text-align:center;&quot;&gt;&lt;i&gt;&amp;lt;&amp;lt;boundary&amp;gt;&amp;gt;&lt;/i&gt;&lt;br&gt;&lt;b&gt;CreateDiaryView&lt;/b&gt;&lt;/p&gt;&lt;hr size=&quot;1&quot;&gt;&lt;p style=&quot;margin:0px;margin-left:4px;&quot;&gt;&lt;br&gt;&lt;/p&gt;&lt;hr size=&quot;1&quot;&gt;&lt;p style=&quot;border-color: var(--border-color); margin: 0px 0px 0px 4px;&quot;&gt;+ get(self) -&amp;gt; str&lt;/p&gt;&lt;p style=&quot;border-color: var(--border-color); margin: 0px 0px 0px 4px;&quot;&gt;+ post(self) -&amp;gt; str&lt;/p&gt;" style="verticalAlign=top;align=left;overflow=fill;fontSize=12;fontFamily=Helvetica;html=1;" parent="1" vertex="1">
                    <mxGeometry x="410" y="-760" width="190" height="140" as="geometry"/>
                </mxCell>
                <mxCell id="85" style="edgeStyle=none;rounded=0;html=1;endArrow=open;endFill=0;startArrow=cross;startFill=0;endSize=12;startSize=12;" parent="1" source="41" target="6" edge="1">
                    <mxGeometry relative="1" as="geometry"/>
                </mxCell>
                <mxCell id="123" style="edgeStyle=orthogonalEdgeStyle;rounded=0;html=1;startArrow=none;startFill=0;endArrow=block;endFill=0;startSize=12;endSize=12;" edge="1" parent="1" source="41" target="102">
                    <mxGeometry relative="1" as="geometry">
                        <Array as="points">
                            <mxPoint x="715" y="-1540"/>
                        </Array>
                    </mxGeometry>
                </mxCell>
                <mxCell id="41" value="&lt;p style=&quot;margin:0px;margin-top:4px;text-align:center;&quot;&gt;&lt;i&gt;&amp;lt;&amp;lt;boundary&amp;gt;&amp;gt;&lt;/i&gt;&lt;br&gt;&lt;b&gt;EditDiaryView&lt;/b&gt;&lt;/p&gt;&lt;hr size=&quot;1&quot;&gt;&lt;p style=&quot;margin:0px;margin-left:4px;&quot;&gt;&lt;br&gt;&lt;/p&gt;&lt;hr size=&quot;1&quot;&gt;&lt;p style=&quot;border-color: var(--border-color); margin: 0px 0px 0px 4px;&quot;&gt;+ get(self, diary_id: int) -&amp;gt; str&lt;/p&gt;&lt;p style=&quot;border-color: var(--border-color); margin: 0px 0px 0px 4px;&quot;&gt;+ post(self, diary_id: int) -&amp;gt; str&lt;/p&gt;" style="verticalAlign=top;align=left;overflow=fill;fontSize=12;fontFamily=Helvetica;html=1;" parent="1" vertex="1">
                    <mxGeometry x="620" y="-760" width="190" height="140" as="geometry"/>
                </mxCell>
                <mxCell id="86" style="edgeStyle=none;rounded=0;html=1;endArrow=open;endFill=0;startArrow=cross;startFill=0;endSize=12;startSize=12;" parent="1" source="42" target="6" edge="1">
                    <mxGeometry relative="1" as="geometry"/>
                </mxCell>
                <mxCell id="124" style="edgeStyle=orthogonalEdgeStyle;rounded=0;html=1;startArrow=none;startFill=0;endArrow=block;endFill=0;startSize=12;endSize=12;" edge="1" parent="1" source="42" target="102">
                    <mxGeometry relative="1" as="geometry">
                        <Array as="points">
                            <mxPoint x="925" y="-1570"/>
                        </Array>
                    </mxGeometry>
                </mxCell>
                <mxCell id="42" value="&lt;p style=&quot;margin:0px;margin-top:4px;text-align:center;&quot;&gt;&lt;i&gt;&amp;lt;&amp;lt;boundary&amp;gt;&amp;gt;&lt;/i&gt;&lt;br&gt;&lt;b&gt;DiariesView&lt;/b&gt;&lt;/p&gt;&lt;hr size=&quot;1&quot;&gt;&lt;p style=&quot;margin:0px;margin-left:4px;&quot;&gt;&lt;br&gt;&lt;/p&gt;&lt;hr size=&quot;1&quot;&gt;&lt;p style=&quot;border-color: var(--border-color); margin: 0px 0px 0px 4px;&quot;&gt;+ get(self) -&amp;gt; str&lt;/p&gt;" style="verticalAlign=top;align=left;overflow=fill;fontSize=12;fontFamily=Helvetica;html=1;" parent="1" vertex="1">
                    <mxGeometry x="830" y="-760" width="190" height="140" as="geometry"/>
                </mxCell>
                <mxCell id="87" style="edgeStyle=none;rounded=0;html=1;endArrow=open;endFill=0;startArrow=cross;startFill=0;endSize=12;startSize=12;" parent="1" source="43" target="6" edge="1">
                    <mxGeometry relative="1" as="geometry"/>
                </mxCell>
                <mxCell id="125" style="edgeStyle=orthogonalEdgeStyle;rounded=0;html=1;startArrow=none;startFill=0;endArrow=block;endFill=0;startSize=12;endSize=12;" edge="1" parent="1" source="43" target="102">
                    <mxGeometry relative="1" as="geometry">
                        <Array as="points">
                            <mxPoint x="1130" y="-1600"/>
                        </Array>
                    </mxGeometry>
                </mxCell>
                <mxCell id="43" value="&lt;p style=&quot;margin:0px;margin-top:4px;text-align:center;&quot;&gt;&lt;i&gt;&amp;lt;&amp;lt;boundary&amp;gt;&amp;gt;&lt;/i&gt;&lt;br&gt;&lt;b&gt;DiaryView&lt;/b&gt;&lt;/p&gt;&lt;hr size=&quot;1&quot;&gt;&lt;p style=&quot;margin:0px;margin-left:4px;&quot;&gt;&lt;br&gt;&lt;/p&gt;&lt;hr size=&quot;1&quot;&gt;&lt;p style=&quot;border-color: var(--border-color); margin: 0px 0px 0px 4px;&quot;&gt;+ get(self, diary_id: int) -&amp;gt; str&lt;/p&gt;" style="verticalAlign=top;align=left;overflow=fill;fontSize=12;fontFamily=Helvetica;html=1;" parent="1" vertex="1">
                    <mxGeometry x="1040" y="-760" width="190" height="140" as="geometry"/>
                </mxCell>
                <mxCell id="88" style="edgeStyle=none;rounded=0;html=1;endArrow=open;endFill=0;startArrow=cross;startFill=0;endSize=12;startSize=12;" parent="1" source="44" target="6" edge="1">
                    <mxGeometry relative="1" as="geometry"/>
                </mxCell>
                <mxCell id="126" style="edgeStyle=orthogonalEdgeStyle;rounded=0;html=1;startArrow=none;startFill=0;endArrow=block;endFill=0;startSize=12;endSize=12;" edge="1" parent="1" source="44" target="102">
                    <mxGeometry relative="1" as="geometry">
                        <Array as="points">
                            <mxPoint x="1345" y="-1630"/>
                        </Array>
                    </mxGeometry>
                </mxCell>
                <mxCell id="44" value="&lt;p style=&quot;margin:0px;margin-top:4px;text-align:center;&quot;&gt;&lt;i&gt;&amp;lt;&amp;lt;boundary&amp;gt;&amp;gt;&lt;/i&gt;&lt;br&gt;&lt;b&gt;DeleteDiaryView&lt;/b&gt;&lt;/p&gt;&lt;hr size=&quot;1&quot;&gt;&lt;p style=&quot;margin:0px;margin-left:4px;&quot;&gt;&lt;br&gt;&lt;/p&gt;&lt;hr size=&quot;1&quot;&gt;&lt;p style=&quot;border-color: var(--border-color); margin: 0px 0px 0px 4px;&quot;&gt;+ get(self, diary_id: int) -&amp;gt; str&lt;/p&gt;" style="verticalAlign=top;align=left;overflow=fill;fontSize=12;fontFamily=Helvetica;html=1;" parent="1" vertex="1">
                    <mxGeometry x="1250" y="-760" width="190" height="140" as="geometry"/>
                </mxCell>
                <mxCell id="89" style="edgeStyle=none;rounded=0;html=1;endArrow=open;endFill=0;startArrow=cross;startFill=0;endSize=12;startSize=12;" parent="1" source="45" target="34" edge="1">
                    <mxGeometry relative="1" as="geometry"/>
                </mxCell>
                <mxCell id="128" style="edgeStyle=orthogonalEdgeStyle;rounded=0;html=1;startArrow=none;startFill=0;endArrow=block;endFill=0;startSize=12;endSize=12;" edge="1" parent="1" source="45" target="102">
                    <mxGeometry relative="1" as="geometry">
                        <Array as="points">
                            <mxPoint x="-385" y="-1580"/>
                        </Array>
                    </mxGeometry>
                </mxCell>
                <mxCell id="45" value="&lt;p style=&quot;margin:0px;margin-top:4px;text-align:center;&quot;&gt;&lt;i&gt;&amp;lt;&amp;lt;boundary&amp;gt;&amp;gt;&lt;/i&gt;&lt;br&gt;&lt;b&gt;ChatView&lt;/b&gt;&lt;/p&gt;&lt;hr size=&quot;1&quot;&gt;&lt;p style=&quot;margin:0px;margin-left:4px;&quot;&gt;&lt;br&gt;&lt;/p&gt;&lt;hr size=&quot;1&quot;&gt;&lt;p style=&quot;border-color: var(--border-color); margin: 0px 0px 0px 4px;&quot;&gt;+ get(self) -&amp;gt; str&lt;/p&gt;&lt;p style=&quot;border-color: var(--border-color); margin: 0px 0px 0px 4px;&quot;&gt;+ post(self) -&amp;gt; str&lt;/p&gt;" style="verticalAlign=top;align=left;overflow=fill;fontSize=12;fontFamily=Helvetica;html=1;" parent="1" vertex="1">
                    <mxGeometry x="-480" y="-360" width="190" height="140" as="geometry"/>
                </mxCell>
                <mxCell id="90" style="edgeStyle=none;rounded=0;html=1;endArrow=open;endFill=0;startArrow=cross;startFill=0;endSize=12;startSize=12;" parent="1" source="46" target="34" edge="1">
                    <mxGeometry relative="1" as="geometry"/>
                </mxCell>
                <mxCell id="129" style="edgeStyle=orthogonalEdgeStyle;rounded=0;html=1;startArrow=none;startFill=0;endArrow=block;endFill=0;startSize=12;endSize=12;" edge="1" parent="1" source="46" target="102">
                    <mxGeometry relative="1" as="geometry">
                        <Array as="points">
                            <mxPoint x="-160" y="-940"/>
                            <mxPoint x="-160" y="-940"/>
                        </Array>
                    </mxGeometry>
                </mxCell>
                <mxCell id="46" value="&lt;p style=&quot;margin:0px;margin-top:4px;text-align:center;&quot;&gt;&lt;i&gt;&amp;lt;&amp;lt;boundary&amp;gt;&amp;gt;&lt;/i&gt;&lt;br&gt;&lt;b&gt;DeleteChatView&lt;/b&gt;&lt;/p&gt;&lt;hr size=&quot;1&quot;&gt;&lt;p style=&quot;margin:0px;margin-left:4px;&quot;&gt;&lt;br&gt;&lt;/p&gt;&lt;hr size=&quot;1&quot;&gt;&lt;p style=&quot;border-color: var(--border-color); margin: 0px 0px 0px 4px;&quot;&gt;+ get(self) -&amp;gt; str&lt;/p&gt;" style="verticalAlign=top;align=left;overflow=fill;fontSize=12;fontFamily=Helvetica;html=1;" parent="1" vertex="1">
                    <mxGeometry x="-240" y="-360" width="190" height="140" as="geometry"/>
                </mxCell>
                <mxCell id="92" style="edgeStyle=none;rounded=0;html=1;endArrow=open;endFill=0;startArrow=cross;startFill=0;endSize=12;startSize=12;" parent="1" source="47" target="6" edge="1">
                    <mxGeometry relative="1" as="geometry"/>
                </mxCell>
                <mxCell id="93" style="edgeStyle=none;rounded=0;html=1;endArrow=open;endFill=0;startArrow=cross;startFill=0;endSize=12;startSize=12;" parent="1" source="47" target="33" edge="1">
                    <mxGeometry relative="1" as="geometry"/>
                </mxCell>
                <mxCell id="127" style="edgeStyle=orthogonalEdgeStyle;rounded=0;html=1;startArrow=none;startFill=0;endArrow=block;endFill=0;startSize=12;endSize=12;" edge="1" parent="1" source="47" target="102">
                    <mxGeometry relative="1" as="geometry">
                        <Array as="points">
                            <mxPoint x="1510" y="-330"/>
                            <mxPoint x="1510" y="-1650"/>
                        </Array>
                    </mxGeometry>
                </mxCell>
                <mxCell id="47" value="&lt;p style=&quot;margin:0px;margin-top:4px;text-align:center;&quot;&gt;&lt;i&gt;&amp;lt;&amp;lt;boundary&amp;gt;&amp;gt;&lt;/i&gt;&lt;br&gt;&lt;b&gt;AnalysisView&lt;/b&gt;&lt;/p&gt;&lt;hr size=&quot;1&quot;&gt;&lt;p style=&quot;margin:0px;margin-left:4px;&quot;&gt;&lt;br&gt;&lt;/p&gt;&lt;hr size=&quot;1&quot;&gt;&lt;p style=&quot;border-color: var(--border-color); margin: 0px 0px 0px 4px;&quot;&gt;+ get(self) -&amp;gt; str&lt;/p&gt;" style="verticalAlign=top;align=left;overflow=fill;fontSize=12;fontFamily=Helvetica;html=1;" parent="1" vertex="1">
                    <mxGeometry x="1070" y="-400" width="190" height="140" as="geometry"/>
                </mxCell>
                <mxCell id="119" style="edgeStyle=orthogonalEdgeStyle;rounded=0;html=1;startArrow=none;startFill=0;endArrow=block;endFill=0;startSize=12;endSize=12;" edge="1" parent="1" source="36" target="102">
                    <mxGeometry relative="1" as="geometry">
                        <Array as="points">
                            <mxPoint x="-70" y="-1250"/>
                            <mxPoint x="-70" y="-1250"/>
                        </Array>
                    </mxGeometry>
                </mxCell>
                <mxCell id="36" value="&lt;p style=&quot;margin:0px;margin-top:4px;text-align:center;&quot;&gt;&lt;i&gt;&amp;lt;&amp;lt;boundary&amp;gt;&amp;gt;&lt;/i&gt;&lt;br&gt;&lt;b&gt;LoginView&lt;/b&gt;&lt;/p&gt;&lt;hr size=&quot;1&quot;&gt;&lt;p style=&quot;margin:0px;margin-left:4px;&quot;&gt;&lt;br&gt;&lt;/p&gt;&lt;hr size=&quot;1&quot;&gt;&lt;p style=&quot;margin:0px;margin-left:4px;&quot;&gt;+ get(self) -&amp;gt; str&lt;/p&gt;&lt;p style=&quot;margin:0px;margin-left:4px;&quot;&gt;+ post(self) -&amp;gt; str&lt;/p&gt;" style="verticalAlign=top;align=left;overflow=fill;fontSize=12;fontFamily=Helvetica;html=1;" parent="1" vertex="1">
                    <mxGeometry x="-140" y="-950" width="190" height="140" as="geometry"/>
                </mxCell>
                <mxCell id="120" style="edgeStyle=orthogonalEdgeStyle;rounded=0;html=1;startArrow=none;startFill=0;endArrow=block;endFill=0;startSize=12;endSize=12;" edge="1" parent="1" source="37" target="102">
                    <mxGeometry relative="1" as="geometry">
                        <Array as="points">
                            <mxPoint x="185" y="-990"/>
                            <mxPoint x="-20" y="-990"/>
                        </Array>
                    </mxGeometry>
                </mxCell>
                <mxCell id="37" value="&lt;p style=&quot;margin:0px;margin-top:4px;text-align:center;&quot;&gt;&lt;i&gt;&amp;lt;&amp;lt;boundary&amp;gt;&amp;gt;&lt;/i&gt;&lt;br&gt;&lt;b&gt;LogoutView&lt;/b&gt;&lt;/p&gt;&lt;hr size=&quot;1&quot;&gt;&lt;p style=&quot;margin:0px;margin-left:4px;&quot;&gt;&lt;br&gt;&lt;/p&gt;&lt;hr size=&quot;1&quot;&gt;&lt;p style=&quot;border-color: var(--border-color); margin: 0px 0px 0px 4px;&quot;&gt;+ get(self) -&amp;gt; str&lt;/p&gt;" style="verticalAlign=top;align=left;overflow=fill;fontSize=12;fontFamily=Helvetica;html=1;" parent="1" vertex="1">
                    <mxGeometry x="90" y="-950" width="190" height="140" as="geometry"/>
                </mxCell>
                <mxCell id="121" style="edgeStyle=orthogonalEdgeStyle;rounded=0;html=1;startArrow=none;startFill=0;endArrow=block;endFill=0;startSize=12;endSize=12;" edge="1" parent="1" source="38" target="102">
                    <mxGeometry relative="1" as="geometry">
                        <Array as="points">
                            <mxPoint x="415" y="-1010"/>
                            <mxPoint x="30" y="-1010"/>
                        </Array>
                    </mxGeometry>
                </mxCell>
                <mxCell id="38" value="&lt;p style=&quot;margin:0px;margin-top:4px;text-align:center;&quot;&gt;&lt;i&gt;&amp;lt;&amp;lt;boundary&amp;gt;&amp;gt;&lt;/i&gt;&lt;br&gt;&lt;b&gt;SignUpView&lt;/b&gt;&lt;/p&gt;&lt;hr size=&quot;1&quot;&gt;&lt;p style=&quot;margin:0px;margin-left:4px;&quot;&gt;&lt;br&gt;&lt;/p&gt;&lt;hr size=&quot;1&quot;&gt;&lt;p style=&quot;border-color: var(--border-color); margin: 0px 0px 0px 4px;&quot;&gt;+ get(self) -&amp;gt; str&lt;/p&gt;&lt;p style=&quot;border-color: var(--border-color); margin: 0px 0px 0px 4px;&quot;&gt;+ post(self) -&amp;gt; str&lt;/p&gt;" style="verticalAlign=top;align=left;overflow=fill;fontSize=12;fontFamily=Helvetica;html=1;" parent="1" vertex="1">
                    <mxGeometry x="320" y="-950" width="190" height="140" as="geometry"/>
                </mxCell>
                <mxCell id="94" value="1" style="text;html=1;align=center;verticalAlign=middle;resizable=0;points=[];autosize=1;strokeColor=none;fillColor=none;" parent="1" vertex="1">
                    <mxGeometry x="470" width="30" height="30" as="geometry"/>
                </mxCell>
                <mxCell id="95" value="0..*" style="text;html=1;align=center;verticalAlign=middle;resizable=0;points=[];autosize=1;strokeColor=none;fillColor=none;" parent="1" vertex="1">
                    <mxGeometry x="465" y="60" width="40" height="30" as="geometry"/>
                </mxCell>
                <mxCell id="96" value="diaries" style="text;html=1;align=center;verticalAlign=middle;resizable=0;points=[];autosize=1;strokeColor=none;fillColor=none;" parent="1" vertex="1">
                    <mxGeometry x="515" y="60" width="60" height="30" as="geometry"/>
                </mxCell>
                <mxCell id="97" value="user" style="text;html=1;align=center;verticalAlign=middle;resizable=0;points=[];autosize=1;strokeColor=none;fillColor=none;" parent="1" vertex="1">
                    <mxGeometry x="190.02" y="90" width="50" height="30" as="geometry"/>
                </mxCell>
                <mxCell id="98" value="1" style="text;html=1;align=center;verticalAlign=middle;resizable=0;points=[];autosize=1;strokeColor=none;fillColor=none;" parent="1" vertex="1">
                    <mxGeometry x="155" y="-30" width="30" height="30" as="geometry"/>
                </mxCell>
                <mxCell id="99" value="1" style="text;html=1;align=center;verticalAlign=middle;resizable=0;points=[];autosize=1;strokeColor=none;fillColor=none;" parent="1" vertex="1">
                    <mxGeometry x="155" y="90" width="30" height="30" as="geometry"/>
                </mxCell>
                <mxCell id="106" style="edgeStyle=orthogonalEdgeStyle;html=1;startArrow=cross;startFill=0;endArrow=open;endFill=0;rounded=0;endSize=12;startSize=12;" edge="1" parent="1" source="102" target="103">
                    <mxGeometry relative="1" as="geometry"/>
                </mxCell>
                <mxCell id="102" value="&lt;p style=&quot;margin:0px;margin-top:4px;text-align:center;&quot;&gt;&lt;i&gt;&amp;lt;&amp;lt;framework&amp;gt;&amp;gt;&lt;/i&gt;&lt;br&gt;&lt;b&gt;Flask&lt;/b&gt;&lt;/p&gt;&lt;hr size=&quot;1&quot;&gt;&lt;p style=&quot;margin:0px;margin-left:4px;&quot;&gt;&lt;br&gt;&lt;/p&gt;&lt;hr size=&quot;1&quot;&gt;&lt;p style=&quot;margin:0px;margin-left:4px;&quot;&gt;+ __init__(import_name: str) -&amp;gt; None&lt;/p&gt;&lt;p style=&quot;margin:0px;margin-left:4px;&quot;&gt;+ run(host: str, port: int) -&amp;gt; None&lt;/p&gt;&lt;p style=&quot;margin:0px;margin-left:4px;&quot;&gt;+ add_url_rule(rule: str, endpoint: str, view_func: Callable) -&amp;gt; None&lt;/p&gt;" style="verticalAlign=top;align=left;overflow=fill;fontSize=12;fontFamily=Helvetica;html=1;" vertex="1" parent="1">
                    <mxGeometry x="-171.24" y="-1670" width="367.49" height="140" as="geometry"/>
                </mxCell>
                <mxCell id="108" style="edgeStyle=none;html=1;startArrow=diamond;startFill=0;endArrow=none;endFill=0;endSize=12;startSize=12;" edge="1" parent="1" source="103" target="107">
                    <mxGeometry relative="1" as="geometry"/>
                </mxCell>
                <mxCell id="103" value="&lt;p style=&quot;margin:0px;margin-top:4px;text-align:center;&quot;&gt;&lt;i&gt;&amp;lt;&amp;lt;ORM&amp;gt;&amp;gt;&lt;/i&gt;&lt;br&gt;&lt;b&gt;SQLAlchemy&lt;/b&gt;&lt;/p&gt;&lt;hr size=&quot;1&quot;&gt;&lt;p style=&quot;margin:0px;margin-left:4px;&quot;&gt;&lt;br&gt;&lt;/p&gt;&lt;hr size=&quot;1&quot;&gt;&lt;p style=&quot;margin:0px;margin-left:4px;&quot;&gt;+ __init__(app: Flask) -&amp;gt; None&lt;/p&gt;&lt;p style=&quot;margin:0px;margin-left:4px;&quot;&gt;+ init_app(app: Flask) -&amp;gt; None&lt;/p&gt;&lt;p style=&quot;margin:0px;margin-left:4px;&quot;&gt;+ create_all() -&amp;gt; None&lt;/p&gt;" style="verticalAlign=top;align=left;overflow=fill;fontSize=12;fontFamily=Helvetica;html=1;" vertex="1" parent="1">
                    <mxGeometry x="-700" y="410" width="190" height="140" as="geometry"/>
                </mxCell>
                <mxCell id="112" style="edgeStyle=orthogonalEdgeStyle;html=1;startArrow=open;startFill=0;endArrow=cross;endFill=0;startSize=12;endSize=12;entryX=0;entryY=0.25;entryDx=0;entryDy=0;exitX=0.5;exitY=0;exitDx=0;exitDy=0;rounded=0;" edge="1" parent="1" source="104" target="102">
                    <mxGeometry relative="1" as="geometry">
                        <Array as="points">
                            <mxPoint x="-902" y="-1635"/>
                        </Array>
                    </mxGeometry>
                </mxCell>
                <mxCell id="116" style="edgeStyle=orthogonalEdgeStyle;rounded=0;html=1;entryX=0;entryY=0.5;entryDx=0;entryDy=0;startArrow=block;startFill=0;endArrow=none;endFill=0;startSize=12;endSize=12;exitX=0.5;exitY=1;exitDx=0;exitDy=0;" edge="1" parent="1" source="104" target="9">
                    <mxGeometry relative="1" as="geometry">
                        <Array as="points">
                            <mxPoint x="-903" y="190"/>
                        </Array>
                    </mxGeometry>
                </mxCell>
                <mxCell id="104" value="&lt;p style=&quot;margin:0px;margin-top:4px;text-align:center;&quot;&gt;&lt;i&gt;&amp;lt;&amp;lt;library&amp;gt;&amp;gt;&lt;/i&gt;&lt;br&gt;&lt;b&gt;LoginManager&lt;/b&gt;&lt;/p&gt;&lt;hr size=&quot;1&quot;&gt;&lt;p style=&quot;margin:0px;margin-left:4px;&quot;&gt;&lt;br&gt;&lt;/p&gt;&lt;hr size=&quot;1&quot;&gt;&lt;p style=&quot;margin:0px;margin-left:4px;&quot;&gt;+ __init__() -&amp;gt; None&lt;/p&gt;&lt;p style=&quot;margin:0px;margin-left:4px;&quot;&gt;+ init_app(app: Flask) -&amp;gt; None&lt;/p&gt;&lt;p style=&quot;margin:0px;margin-left:4px;&quot;&gt;+ user_loader(callback: Callable) -&amp;gt; None&lt;/p&gt;" style="verticalAlign=top;align=left;overflow=fill;fontSize=12;fontFamily=Helvetica;html=1;" vertex="1" parent="1">
                    <mxGeometry x="-1020" y="-55" width="234.98" height="140" as="geometry"/>
                </mxCell>
                <mxCell id="109" style="edgeStyle=none;html=1;startArrow=none;startFill=0;endArrow=diamond;endFill=0;endSize=12;" edge="1" parent="1" source="105" target="102">
                    <mxGeometry relative="1" as="geometry"/>
                </mxCell>
                <mxCell id="105" value="&lt;p style=&quot;margin:0px;margin-top:4px;text-align:center;&quot;&gt;&lt;i&gt;&amp;lt;&amp;lt;library&amp;gt;&amp;gt;&lt;/i&gt;&lt;br&gt;&lt;b&gt;Bootstrap5&lt;/b&gt;&lt;/p&gt;&lt;hr size=&quot;1&quot;&gt;&lt;p style=&quot;margin:0px;margin-left:4px;&quot;&gt;&lt;br&gt;&lt;/p&gt;&lt;hr size=&quot;1&quot;&gt;&lt;p style=&quot;margin:0px;margin-left:4px;&quot;&gt;+ __init__(app: Flask) -&amp;gt; None&lt;/p&gt;" style="verticalAlign=top;align=left;overflow=fill;fontSize=12;fontFamily=Helvetica;html=1;" vertex="1" parent="1">
                    <mxGeometry x="-82.49000000000001" y="-1880" width="190" height="140" as="geometry"/>
                </mxCell>
                <mxCell id="107" value="&lt;p style=&quot;margin:0px;margin-top:4px;text-align:center;&quot;&gt;&lt;i&gt;&amp;lt;&amp;lt;database&amp;gt;&amp;gt;&lt;/i&gt;&lt;br&gt;&lt;b&gt;SQLite&lt;/b&gt;&lt;/p&gt;&lt;hr size=&quot;1&quot;&gt;&lt;p style=&quot;margin:0px;margin-left:4px;&quot;&gt;&lt;br&gt;&lt;/p&gt;&lt;hr size=&quot;1&quot;&gt;&lt;p style=&quot;margin:0px;margin-left:4px;&quot;&gt;+ connect(datanase: str)&lt;/p&gt;&lt;p style=&quot;margin:0px;margin-left:4px;&quot;&gt;+ execute(query: str)&lt;/p&gt;" style="verticalAlign=top;align=left;overflow=fill;fontSize=12;fontFamily=Helvetica;html=1;" vertex="1" parent="1">
                    <mxGeometry x="-1020" y="410" width="190" height="140" as="geometry"/>
                </mxCell>
                <mxCell id="132" value="chats" style="text;html=1;align=center;verticalAlign=middle;resizable=0;points=[];autosize=1;strokeColor=none;fillColor=none;" vertex="1" parent="1">
                    <mxGeometry x="7.020000000000003" y="470" width="50" height="30" as="geometry"/>
                </mxCell>
                <mxCell id="133" value="0..*" style="text;html=1;align=center;verticalAlign=middle;resizable=0;points=[];autosize=1;strokeColor=none;fillColor=none;" vertex="1" parent="1">
                    <mxGeometry x="50.000000000000014" y="470" width="40" height="30" as="geometry"/>
                </mxCell>
                <mxCell id="134" value="1" style="text;html=1;align=center;verticalAlign=middle;resizable=0;points=[];autosize=1;strokeColor=none;fillColor=none;" vertex="1" parent="1">
                    <mxGeometry x="-220" y="-30" width="30" height="30" as="geometry"/>
                </mxCell>
                <mxCell id="135" value="1" style="text;html=1;align=center;verticalAlign=middle;resizable=0;points=[];autosize=1;strokeColor=none;fillColor=none;" vertex="1" parent="1">
                    <mxGeometry x="-300" y="-30" width="30" height="30" as="geometry"/>
                </mxCell>
                <mxCell id="136" value="1" style="text;html=1;align=center;verticalAlign=middle;resizable=0;points=[];autosize=1;strokeColor=none;fillColor=none;" vertex="1" parent="1">
                    <mxGeometry x="388" y="660" width="30" height="30" as="geometry"/>
                </mxCell>
                <mxCell id="137" value="emotion_ai" style="text;html=1;align=center;verticalAlign=middle;resizable=0;points=[];autosize=1;strokeColor=none;fillColor=none;" vertex="1" parent="1">
                    <mxGeometry x="338" y="690" width="80" height="30" as="geometry"/>
                </mxCell>
                <mxCell id="139" value="diaries" style="text;html=1;align=center;verticalAlign=middle;resizable=0;points=[];autosize=1;strokeColor=none;fillColor=none;" vertex="1" parent="1">
                    <mxGeometry x="600" y="190" width="60" height="30" as="geometry"/>
                </mxCell>
                <mxCell id="140" value="1" style="text;html=1;align=center;verticalAlign=middle;resizable=0;points=[];autosize=1;strokeColor=none;fillColor=none;" vertex="1" parent="1">
                    <mxGeometry x="990" y="-70" width="30" height="30" as="geometry"/>
                </mxCell>
                <mxCell id="141" value="0..*" style="text;html=1;align=center;verticalAlign=middle;resizable=0;points=[];autosize=1;strokeColor=none;fillColor=none;" vertex="1" parent="1">
                    <mxGeometry x="600" y="140" width="40" height="30" as="geometry"/>
                </mxCell>
                <mxCell id="142" value="1" style="text;html=1;align=center;verticalAlign=middle;resizable=0;points=[];autosize=1;strokeColor=none;fillColor=none;" vertex="1" parent="1">
                    <mxGeometry x="1130" y="-55" width="30" height="30" as="geometry"/>
                </mxCell>
                <mxCell id="143" value="1" style="text;html=1;align=center;verticalAlign=middle;resizable=0;points=[];autosize=1;strokeColor=none;fillColor=none;" vertex="1" parent="1">
                    <mxGeometry x="958" y="510" width="30" height="30" as="geometry"/>
                </mxCell>
                <mxCell id="144" value="emotion_ai" style="text;html=1;align=center;verticalAlign=middle;resizable=0;points=[];autosize=1;strokeColor=none;fillColor=none;" vertex="1" parent="1">
                    <mxGeometry x="958" y="560" width="80" height="30" as="geometry"/>
                </mxCell>
                <mxCell id="145" value="1" style="text;html=1;align=center;verticalAlign=middle;resizable=0;points=[];autosize=1;strokeColor=none;fillColor=none;" vertex="1" parent="1">
                    <mxGeometry x="660" y="-160" width="30" height="30" as="geometry"/>
                </mxCell>
                <mxCell id="146" value="1" style="text;html=1;align=center;verticalAlign=middle;resizable=0;points=[];autosize=1;strokeColor=none;fillColor=none;" vertex="1" parent="1">
                    <mxGeometry x="992.5" y="-160" width="30" height="30" as="geometry"/>
                </mxCell>
                <mxCell id="147" value="analysisController" style="text;html=1;align=center;verticalAlign=middle;resizable=0;points=[];autosize=1;strokeColor=none;fillColor=none;" vertex="1" parent="1">
                    <mxGeometry x="902.5" y="-120" width="120" height="30" as="geometry"/>
                </mxCell>
                <mxCell id="148" value="1" style="text;html=1;align=center;verticalAlign=middle;resizable=0;points=[];autosize=1;strokeColor=none;fillColor=none;" vertex="1" parent="1">
                    <mxGeometry x="1038" y="-330" width="30" height="30" as="geometry"/>
                </mxCell>
                <mxCell id="149" value="1" style="text;html=1;align=center;verticalAlign=middle;resizable=0;points=[];autosize=1;strokeColor=none;fillColor=none;" vertex="1" parent="1">
                    <mxGeometry x="657.5" y="-210" width="30" height="30" as="geometry"/>
                </mxCell>
                <mxCell id="150" value="1" style="text;html=1;align=center;verticalAlign=middle;resizable=0;points=[];autosize=1;strokeColor=none;fillColor=none;" vertex="1" parent="1">
                    <mxGeometry x="651.5" y="-263" width="30" height="30" as="geometry"/>
                </mxCell>
                <mxCell id="151" value="1" style="text;html=1;align=center;verticalAlign=middle;resizable=0;points=[];autosize=1;strokeColor=none;fillColor=none;" vertex="1" parent="1">
                    <mxGeometry x="610" y="-268" width="30" height="30" as="geometry"/>
                </mxCell>
                <mxCell id="152" value="1" style="text;html=1;align=center;verticalAlign=middle;resizable=0;points=[];autosize=1;strokeColor=none;fillColor=none;" vertex="1" parent="1">
                    <mxGeometry x="565" y="-268" width="30" height="30" as="geometry"/>
                </mxCell>
                <mxCell id="153" value="1" style="text;html=1;align=center;verticalAlign=middle;resizable=0;points=[];autosize=1;strokeColor=none;fillColor=none;" vertex="1" parent="1">
                    <mxGeometry x="515" y="-270" width="30" height="30" as="geometry"/>
                </mxCell>
                <mxCell id="154" value="1" style="text;html=1;align=center;verticalAlign=middle;resizable=0;points=[];autosize=1;strokeColor=none;fillColor=none;" vertex="1" parent="1">
                    <mxGeometry x="470" y="-270" width="30" height="30" as="geometry"/>
                </mxCell>
                <mxCell id="155" value="1" style="text;html=1;align=center;verticalAlign=middle;resizable=0;points=[];autosize=1;strokeColor=none;fillColor=none;" vertex="1" parent="1">
                    <mxGeometry x="470" y="-620" width="30" height="30" as="geometry"/>
                </mxCell>
                <mxCell id="156" value="1" style="text;html=1;align=center;verticalAlign=middle;resizable=0;points=[];autosize=1;strokeColor=none;fillColor=none;" vertex="1" parent="1">
                    <mxGeometry x="651.5" y="-620" width="30" height="30" as="geometry"/>
                </mxCell>
                <mxCell id="157" value="1" style="text;html=1;align=center;verticalAlign=middle;resizable=0;points=[];autosize=1;strokeColor=none;fillColor=none;" vertex="1" parent="1">
                    <mxGeometry x="820" y="-620" width="30" height="30" as="geometry"/>
                </mxCell>
                <mxCell id="158" value="1" style="text;html=1;align=center;verticalAlign=middle;resizable=0;points=[];autosize=1;strokeColor=none;fillColor=none;" vertex="1" parent="1">
                    <mxGeometry x="990" y="-620" width="30" height="30" as="geometry"/>
                </mxCell>
                <mxCell id="159" value="1" style="text;html=1;align=center;verticalAlign=middle;resizable=0;points=[];autosize=1;strokeColor=none;fillColor=none;" vertex="1" parent="1">
                    <mxGeometry x="1180" y="-620" width="30" height="30" as="geometry"/>
                </mxCell>
                <mxCell id="164" value="#D" style="text;html=1;align=center;verticalAlign=middle;resizable=0;points=[];autosize=1;strokeColor=none;fillColor=none;" vertex="1" parent="1">
                    <mxGeometry x="465" y="-298" width="40" height="30" as="geometry"/>
                </mxCell>
                <mxCell id="165" value="#D: diaryController" style="text;html=1;align=center;verticalAlign=middle;resizable=0;points=[];autosize=1;strokeColor=none;fillColor=none;" vertex="1" parent="1">
                    <mxGeometry x="350" y="-260" width="120" height="30" as="geometry"/>
                </mxCell>
                <mxCell id="168" value="#D" style="text;html=1;align=center;verticalAlign=middle;resizable=0;points=[];autosize=1;strokeColor=none;fillColor=none;" vertex="1" parent="1">
                    <mxGeometry x="525" y="-298" width="40" height="30" as="geometry"/>
                </mxCell>
                <mxCell id="169" value="#D" style="text;html=1;align=center;verticalAlign=middle;resizable=0;points=[];autosize=1;strokeColor=none;fillColor=none;" vertex="1" parent="1">
                    <mxGeometry x="580" y="-298" width="40" height="30" as="geometry"/>
                </mxCell>
                <mxCell id="170" value="#D" style="text;html=1;align=center;verticalAlign=middle;resizable=0;points=[];autosize=1;strokeColor=none;fillColor=none;" vertex="1" parent="1">
                    <mxGeometry x="630" y="-298" width="40" height="30" as="geometry"/>
                </mxCell>
                <mxCell id="171" value="#D" style="text;html=1;align=center;verticalAlign=middle;resizable=0;points=[];autosize=1;strokeColor=none;fillColor=none;" vertex="1" parent="1">
                    <mxGeometry x="695" y="-298" width="40" height="30" as="geometry"/>
                </mxCell>
                <mxCell id="172" value="#D" style="text;html=1;align=center;verticalAlign=middle;resizable=0;points=[];autosize=1;strokeColor=none;fillColor=none;" vertex="1" parent="1">
                    <mxGeometry x="690" y="-220" width="40" height="30" as="geometry"/>
                </mxCell>
                <mxCell id="173" value="#U: userController" style="text;html=1;align=center;verticalAlign=middle;resizable=0;points=[];autosize=1;strokeColor=none;fillColor=none;" vertex="1" parent="1">
                    <mxGeometry x="30.019999999999982" y="-195" width="120" height="30" as="geometry"/>
                </mxCell>
                <mxCell id="174" value="#U" style="text;html=1;align=center;verticalAlign=middle;resizable=0;points=[];autosize=1;strokeColor=none;fillColor=none;" vertex="1" parent="1">
                    <mxGeometry x="107.51" y="-240" width="40" height="30" as="geometry"/>
                </mxCell>
                <mxCell id="175" value="#U" style="text;html=1;align=center;verticalAlign=middle;resizable=0;points=[];autosize=1;strokeColor=none;fillColor=none;" vertex="1" parent="1">
                    <mxGeometry x="185" y="-240" width="40" height="30" as="geometry"/>
                </mxCell>
                <mxCell id="176" value="#U" style="text;html=1;align=center;verticalAlign=middle;resizable=0;points=[];autosize=1;strokeColor=none;fillColor=none;" vertex="1" parent="1">
                    <mxGeometry x="150" y="-240" width="40" height="30" as="geometry"/>
                </mxCell>
                <mxCell id="178" value="1" style="text;html=1;align=center;verticalAlign=middle;resizable=0;points=[];autosize=1;strokeColor=none;fillColor=none;" vertex="1" parent="1">
                    <mxGeometry x="120.01999999999998" y="-220" width="30" height="30" as="geometry"/>
                </mxCell>
                <mxCell id="179" value="1" style="text;html=1;align=center;verticalAlign=middle;resizable=0;points=[];autosize=1;strokeColor=none;fillColor=none;" vertex="1" parent="1">
                    <mxGeometry x="154.99999999999997" y="-220" width="30" height="30" as="geometry"/>
                </mxCell>
                <mxCell id="180" value="1" style="text;html=1;align=center;verticalAlign=middle;resizable=0;points=[];autosize=1;strokeColor=none;fillColor=none;" vertex="1" parent="1">
                    <mxGeometry x="189.99999999999997" y="-220" width="30" height="30" as="geometry"/>
                </mxCell>
                <mxCell id="181" value="1" style="text;html=1;align=center;verticalAlign=middle;resizable=0;points=[];autosize=1;strokeColor=none;fillColor=none;" vertex="1" parent="1">
                    <mxGeometry x="-40.00000000000003" y="-780" width="30" height="30" as="geometry"/>
                </mxCell>
                <mxCell id="182" value="1" style="text;html=1;align=center;verticalAlign=middle;resizable=0;points=[];autosize=1;strokeColor=none;fillColor=none;" vertex="1" parent="1">
                    <mxGeometry x="150.01999999999998" y="-780" width="30" height="30" as="geometry"/>
                </mxCell>
                <mxCell id="183" value="1" style="text;html=1;align=center;verticalAlign=middle;resizable=0;points=[];autosize=1;strokeColor=none;fillColor=none;" vertex="1" parent="1">
                    <mxGeometry x="352.5" y="-780" width="30" height="30" as="geometry"/>
                </mxCell>
                <mxCell id="184" value="chatController" style="text;html=1;align=center;verticalAlign=middle;resizable=0;points=[];autosize=1;strokeColor=none;fillColor=none;" vertex="1" parent="1">
                    <mxGeometry x="-220.00000000000003" y="-195" width="100" height="30" as="geometry"/>
                </mxCell>
                <mxCell id="185" value="chatController" style="text;html=1;align=center;verticalAlign=middle;resizable=0;points=[];autosize=1;strokeColor=none;fillColor=none;" vertex="1" parent="1">
                    <mxGeometry x="-315" y="-195" width="100" height="30" as="geometry"/>
                </mxCell>
                <mxCell id="186" value="1" style="text;html=1;align=center;verticalAlign=middle;resizable=0;points=[];autosize=1;strokeColor=none;fillColor=none;" vertex="1" parent="1">
                    <mxGeometry x="-350" y="-195" width="30" height="30" as="geometry"/>
                </mxCell>
                <mxCell id="187" value="1" style="text;html=1;align=center;verticalAlign=middle;resizable=0;points=[];autosize=1;strokeColor=none;fillColor=none;" vertex="1" parent="1">
                    <mxGeometry x="-370" y="-220" width="30" height="30" as="geometry"/>
                </mxCell>
                <mxCell id="188" value="1" style="text;html=1;align=center;verticalAlign=middle;resizable=0;points=[];autosize=1;strokeColor=none;fillColor=none;" vertex="1" parent="1">
                    <mxGeometry x="-230" y="-225" width="30" height="30" as="geometry"/>
                </mxCell>
                <mxCell id="189" value="1" style="text;html=1;align=center;verticalAlign=middle;resizable=0;points=[];autosize=1;strokeColor=none;fillColor=none;" vertex="1" parent="1">
                    <mxGeometry x="-240" y="-200" width="30" height="30" as="geometry"/>
                </mxCell>
                <mxCell id="190" value="analysisController" style="text;html=1;align=center;verticalAlign=middle;resizable=0;points=[];autosize=1;strokeColor=none;fillColor=none;" vertex="1" parent="1">
                    <mxGeometry x="1040" y="-225" width="120" height="30" as="geometry"/>
                </mxCell>
                <mxCell id="192" value="add_url_rule('/login', view_func=LoginView.as_view('loginPage'))" style="text;whiteSpace=wrap;html=1;rotation=90;" vertex="1" parent="1">
                    <mxGeometry x="-250" y="-1250" width="380" height="40" as="geometry"/>
                </mxCell>
                <mxCell id="193" value="add_url_rule('/logout', view_func=LogoutView.as_view('logout'))" style="text;whiteSpace=wrap;html=1;rotation=90;" vertex="1" parent="1">
                    <mxGeometry x="-200" y="-1250" width="380" height="40" as="geometry"/>
                </mxCell>
                <mxCell id="196" value="add_url_rule('/signup', view_func=SignUpView.as_view('signUpPage'))" style="text;whiteSpace=wrap;html=1;rotation=90;" vertex="1" parent="1">
                    <mxGeometry x="-160" y="-1240" width="410" height="40" as="geometry"/>
                </mxCell>
                <mxCell id="197" value="add_url_rule('/', view_func=IndexView.as_view('indexPage'))" style="text;whiteSpace=wrap;html=1;rotation=90;" vertex="1" parent="1">
                    <mxGeometry x="-420" y="-1260" width="350" height="40" as="geometry"/>
                </mxCell>
                <mxCell id="198" value="add_url_rule('/create_diary', view_func=CreateDiaryView.as_view('createDiaryPage'))" style="text;whiteSpace=wrap;html=1;rotation=90;" vertex="1" parent="1">
                    <mxGeometry x="320" y="-1190" width="490" height="40" as="geometry"/>
                </mxCell>
                <mxCell id="200" value="add_url_rule('/diaries/&lt;int:diary_id&gt;/edit', view_func=EditDiaryView.as_view('editDiaryPage'))" style="text;whiteSpace=wrap;html=1;rotation=90;" vertex="1" parent="1">
                    <mxGeometry x="525" y="-1210" width="450" height="40" as="geometry"/>
                </mxCell>
                <mxCell id="202" value="add_url_rule('/diaries', view_func=DiariesView.as_view('diariesPage'))" style="text;whiteSpace=wrap;html=1;rotation=90;" vertex="1" parent="1">
                    <mxGeometry x="750" y="-1210" width="400" height="40" as="geometry"/>
                </mxCell>
                <mxCell id="205" value="add_url_rule('/diaries/&lt;int:diary_id&gt;', view_func=DiaryView.as_view('diaryPage'))" style="text;whiteSpace=wrap;html=1;rotation=90;" vertex="1" parent="1">
                    <mxGeometry x="958" y="-1210" width="390" height="40" as="geometry"/>
                </mxCell>
                <mxCell id="206" value="add_url_rule('/diaries/&lt;int:diary_id&gt;/delete', view_func=DeleteDiaryView.as_view('deleteDiary'))" style="text;whiteSpace=wrap;html=1;rotation=90;" vertex="1" parent="1">
                    <mxGeometry x="1130" y="-1190" width="470" height="40" as="geometry"/>
                </mxCell>
                <mxCell id="207" value="add_url_rule('/analysis', view_func=AnalysisView.as_view('analysisPage'))" style="text;whiteSpace=wrap;html=1;rotation=90;" vertex="1" parent="1">
                    <mxGeometry x="1320" y="-1200" width="430" height="40" as="geometry"/>
                </mxCell>
                <mxCell id="209" value="add_url_rule('/chat/delete', view_func=DeleteChatView.as_view('deleteChat'))" style="text;whiteSpace=wrap;html=1;rotation=90;" vertex="1" parent="1">
                    <mxGeometry x="-360" y="-1220" width="440" height="40" as="geometry"/>
                </mxCell>
                <mxCell id="210" value="add_url_rule('/chat', view_func=ChatView.as_view('chatPage'))" style="text;whiteSpace=wrap;html=1;rotation=90;" vertex="1" parent="1">
                    <mxGeometry x="-550" y="-1250" width="370" height="40" as="geometry"/>
                </mxCell>
                <mxCell id="211" value="bootstrap" style="text;html=1;align=center;verticalAlign=middle;resizable=0;points=[];autosize=1;strokeColor=none;fillColor=none;" vertex="1" parent="1">
                    <mxGeometry x="10" y="-1740" width="70" height="30" as="geometry"/>
                </mxCell>
                <mxCell id="212" value="1" style="text;html=1;align=center;verticalAlign=middle;resizable=0;points=[];autosize=1;strokeColor=none;fillColor=none;" vertex="1" parent="1">
                    <mxGeometry x="510" y="-790" width="30" height="30" as="geometry"/>
                </mxCell>
                <mxCell id="213" value="1" style="text;html=1;align=center;verticalAlign=middle;resizable=0;points=[];autosize=1;strokeColor=none;fillColor=none;" vertex="1" parent="1">
                    <mxGeometry x="690" y="-790" width="30" height="30" as="geometry"/>
                </mxCell>
                <mxCell id="215" value="1" style="text;html=1;align=center;verticalAlign=middle;resizable=0;points=[];autosize=1;strokeColor=none;fillColor=none;" vertex="1" parent="1">
                    <mxGeometry x="900" y="-790" width="30" height="30" as="geometry"/>
                </mxCell>
                <mxCell id="216" value="1" style="text;html=1;align=center;verticalAlign=middle;resizable=0;points=[];autosize=1;strokeColor=none;fillColor=none;" vertex="1" parent="1">
                    <mxGeometry x="1100" y="-790" width="30" height="30" as="geometry"/>
                </mxCell>
                <mxCell id="217" value="1" style="text;html=1;align=center;verticalAlign=middle;resizable=0;points=[];autosize=1;strokeColor=none;fillColor=none;" vertex="1" parent="1">
                    <mxGeometry x="1318" y="-790" width="30" height="30" as="geometry"/>
                </mxCell>
                <mxCell id="218" value="1" style="text;html=1;align=center;verticalAlign=middle;resizable=0;points=[];autosize=1;strokeColor=none;fillColor=none;" vertex="1" parent="1">
                    <mxGeometry x="1260" y="-360" width="30" height="30" as="geometry"/>
                </mxCell>
                <mxCell id="219" value="1" style="text;html=1;align=center;verticalAlign=middle;resizable=0;points=[];autosize=1;strokeColor=none;fillColor=none;" vertex="1" parent="1">
                    <mxGeometry x="-200" y="-390" width="30" height="30" as="geometry"/>
                </mxCell>
                <mxCell id="220" value="1" style="text;html=1;align=center;verticalAlign=middle;resizable=0;points=[];autosize=1;strokeColor=none;fillColor=none;" vertex="1" parent="1">
                    <mxGeometry x="-420" y="-390" width="30" height="30" as="geometry"/>
                </mxCell>
                <mxCell id="221" value="1" style="text;html=1;align=center;verticalAlign=middle;resizable=0;points=[];autosize=1;strokeColor=none;fillColor=none;" vertex="1" parent="1">
                    <mxGeometry x="-300" y="-790" width="30" height="30" as="geometry"/>
                </mxCell>
                <mxCell id="222" value="1" style="text;html=1;align=center;verticalAlign=middle;resizable=0;points=[];autosize=1;strokeColor=none;fillColor=none;" vertex="1" parent="1">
                    <mxGeometry x="-105" y="-980" width="30" height="30" as="geometry"/>
                </mxCell>
                <mxCell id="223" value="1" style="text;html=1;align=center;verticalAlign=middle;resizable=0;points=[];autosize=1;strokeColor=none;fillColor=none;" vertex="1" parent="1">
                    <mxGeometry x="155" y="-980" width="30" height="30" as="geometry"/>
                </mxCell>
                <mxCell id="224" value="1" style="text;html=1;align=center;verticalAlign=middle;resizable=0;points=[];autosize=1;strokeColor=none;fillColor=none;" vertex="1" parent="1">
                    <mxGeometry x="380" y="-980" width="30" height="30" as="geometry"/>
                </mxCell>
                <mxCell id="225" value="1" style="text;html=1;align=center;verticalAlign=middle;resizable=0;points=[];autosize=1;strokeColor=none;fillColor=none;" vertex="1" parent="1">
                    <mxGeometry x="-160" y="-1530" width="30" height="30" as="geometry"/>
                </mxCell>
                <mxCell id="226" value="1" style="text;html=1;align=center;verticalAlign=middle;resizable=0;points=[];autosize=1;strokeColor=none;fillColor=none;" vertex="1" parent="1">
                    <mxGeometry x="-70" y="-1530" width="30" height="30" as="geometry"/>
                </mxCell>
                <mxCell id="227" value="1" style="text;html=1;align=center;verticalAlign=middle;resizable=0;points=[];autosize=1;strokeColor=none;fillColor=none;" vertex="1" parent="1">
                    <mxGeometry x="-10" y="-1530" width="30" height="30" as="geometry"/>
                </mxCell>
                <mxCell id="228" value="1" style="text;html=1;align=center;verticalAlign=middle;resizable=0;points=[];autosize=1;strokeColor=none;fillColor=none;" vertex="1" parent="1">
                    <mxGeometry x="30.02" y="-1530" width="30" height="30" as="geometry"/>
                </mxCell>
                <mxCell id="229" value="1" style="text;html=1;align=center;verticalAlign=middle;resizable=0;points=[];autosize=1;strokeColor=none;fillColor=none;" vertex="1" parent="1">
                    <mxGeometry x="75.02" y="-1530" width="30" height="30" as="geometry"/>
                </mxCell>
                <mxCell id="230" value="1" style="text;html=1;align=center;verticalAlign=middle;resizable=0;points=[];autosize=1;strokeColor=none;fillColor=none;" vertex="1" parent="1">
                    <mxGeometry x="195" y="-1540" width="30" height="30" as="geometry"/>
                </mxCell>
                <mxCell id="231" value="1" style="text;html=1;align=center;verticalAlign=middle;resizable=0;points=[];autosize=1;strokeColor=none;fillColor=none;" vertex="1" parent="1">
                    <mxGeometry x="195" y="-1570" width="30" height="30" as="geometry"/>
                </mxCell>
                <mxCell id="232" value="1" style="text;html=1;align=center;verticalAlign=middle;resizable=0;points=[];autosize=1;strokeColor=none;fillColor=none;" vertex="1" parent="1">
                    <mxGeometry x="195" y="-1600" width="30" height="30" as="geometry"/>
                </mxCell>
                <mxCell id="233" value="1" style="text;html=1;align=center;verticalAlign=middle;resizable=0;points=[];autosize=1;strokeColor=none;fillColor=none;" vertex="1" parent="1">
                    <mxGeometry x="196.25" y="-1630" width="30" height="30" as="geometry"/>
                </mxCell>
                <mxCell id="234" value="1" style="text;html=1;align=center;verticalAlign=middle;resizable=0;points=[];autosize=1;strokeColor=none;fillColor=none;" vertex="1" parent="1">
                    <mxGeometry x="196.25" y="-1684" width="30" height="30" as="geometry"/>
                </mxCell>
                <mxCell id="235" value="1" style="text;html=1;align=center;verticalAlign=middle;resizable=0;points=[];autosize=1;strokeColor=none;fillColor=none;" vertex="1" parent="1">
                    <mxGeometry x="-20" y="-1700" width="30" height="30" as="geometry"/>
                </mxCell>
                <mxCell id="236" value="1" style="text;html=1;align=center;verticalAlign=middle;resizable=0;points=[];autosize=1;strokeColor=none;fillColor=none;" vertex="1" parent="1">
                    <mxGeometry x="-20" y="-1740" width="30" height="30" as="geometry"/>
                </mxCell>
                <mxCell id="237" value="1" style="text;html=1;align=center;verticalAlign=middle;resizable=0;points=[];autosize=1;strokeColor=none;fillColor=none;" vertex="1" parent="1">
                    <mxGeometry x="-200" y="-1550" width="30" height="30" as="geometry"/>
                </mxCell>
                <mxCell id="238" value="1" style="text;html=1;align=center;verticalAlign=middle;resizable=0;points=[];autosize=1;strokeColor=none;fillColor=none;" vertex="1" parent="1">
                    <mxGeometry x="-300" y="-1580" width="30" height="30" as="geometry"/>
                </mxCell>
                <mxCell id="239" value="1" style="text;html=1;align=center;verticalAlign=middle;resizable=0;points=[];autosize=1;strokeColor=none;fillColor=none;" vertex="1" parent="1">
                    <mxGeometry x="-201.24" y="-1630" width="30" height="30" as="geometry"/>
                </mxCell>
                <mxCell id="240" value="1" style="text;html=1;align=center;verticalAlign=middle;resizable=0;points=[];autosize=1;strokeColor=none;fillColor=none;" vertex="1" parent="1">
                    <mxGeometry x="-200" y="-1670" width="30" height="30" as="geometry"/>
                </mxCell>
                <mxCell id="241" value="1" style="text;html=1;align=center;verticalAlign=middle;resizable=0;points=[];autosize=1;strokeColor=none;fillColor=none;" vertex="1" parent="1">
                    <mxGeometry x="-940" y="-85" width="30" height="30" as="geometry"/>
                </mxCell>
                <mxCell id="242" value="1" style="text;html=1;align=center;verticalAlign=middle;resizable=0;points=[];autosize=1;strokeColor=none;fillColor=none;" vertex="1" parent="1">
                    <mxGeometry x="-730" y="440" width="30" height="30" as="geometry"/>
                </mxCell>
                <mxCell id="243" value="1" style="text;html=1;align=center;verticalAlign=middle;resizable=0;points=[];autosize=1;strokeColor=none;fillColor=none;" vertex="1" parent="1">
                    <mxGeometry x="-830" y="440" width="30" height="30" as="geometry"/>
                </mxCell>
                <mxCell id="244" value="1" style="text;html=1;align=center;verticalAlign=middle;resizable=0;points=[];autosize=1;strokeColor=none;fillColor=none;" vertex="1" parent="1">
                    <mxGeometry x="-640" y="375" width="30" height="30" as="geometry"/>
                </mxCell>
                <mxCell id="245" value="1" style="text;html=1;align=center;verticalAlign=middle;resizable=0;points=[];autosize=1;strokeColor=none;fillColor=none;" vertex="1" parent="1">
                    <mxGeometry x="-599.5" y="375" width="30" height="30" as="geometry"/>
                </mxCell>
                <mxCell id="246" value="1" style="text;html=1;align=center;verticalAlign=middle;resizable=0;points=[];autosize=1;strokeColor=none;fillColor=none;" vertex="1" parent="1">
                    <mxGeometry x="-560" y="375" width="30" height="30" as="geometry"/>
                </mxCell>
                <mxCell id="247" value="1" style="text;html=1;align=center;verticalAlign=middle;resizable=0;points=[];autosize=1;strokeColor=none;fillColor=none;" vertex="1" parent="1">
                    <mxGeometry x="57.02000000000001" y="230" width="30" height="30" as="geometry"/>
                </mxCell>
                <mxCell id="248" value="0..*" style="text;html=1;align=center;verticalAlign=middle;resizable=0;points=[];autosize=1;strokeColor=none;fillColor=none;" vertex="1" parent="1">
                    <mxGeometry x="50.02000000000001" y="190" width="40" height="30" as="geometry"/>
                </mxCell>
                <mxCell id="249" value="1" style="text;html=1;align=center;verticalAlign=middle;resizable=0;points=[];autosize=1;strokeColor=none;fillColor=none;" vertex="1" parent="1">
                    <mxGeometry x="430" y="60" width="30" height="30" as="geometry"/>
                </mxCell>
                <mxCell id="251" value="1" style="text;html=1;align=center;verticalAlign=middle;resizable=0;points=[];autosize=1;strokeColor=none;fillColor=none;" vertex="1" parent="1">
                    <mxGeometry x="-510" y="520" width="30" height="30" as="geometry"/>
                </mxCell>
                <mxCell id="252" value="1" style="text;html=1;align=center;verticalAlign=middle;resizable=0;points=[];autosize=1;strokeColor=none;fillColor=none;" vertex="1" parent="1">
                    <mxGeometry x="60.01999999999998" y="520" width="30" height="30" as="geometry"/>
                </mxCell>
                <mxCell id="253" value="1" style="text;html=1;align=center;verticalAlign=middle;resizable=0;points=[];autosize=1;strokeColor=none;fillColor=none;" vertex="1" parent="1">
                    <mxGeometry x="-930" y="85" width="30" height="30" as="geometry"/>
                </mxCell>
                <mxCell id="254" value="user" style="text;html=1;align=center;verticalAlign=middle;resizable=0;points=[];autosize=1;strokeColor=none;fillColor=none;" vertex="1" parent="1">
                    <mxGeometry x="40.02000000000001" y="160" width="50" height="30" as="geometry"/>
                </mxCell>
                <mxCell id="255" value="db" style="text;html=1;align=center;verticalAlign=middle;resizable=0;points=[];autosize=1;strokeColor=none;fillColor=none;" vertex="1" parent="1">
                    <mxGeometry x="-645" y="350" width="40" height="30" as="geometry"/>
                </mxCell>
                <mxCell id="257" style="edgeStyle=orthogonalEdgeStyle;rounded=0;html=1;startArrow=open;startFill=0;endArrow=cross;endFill=0;startSize=12;endSize=12;" edge="1" parent="1" source="256" target="32">
                    <mxGeometry relative="1" as="geometry">
                        <Array as="points">
                            <mxPoint x="1000" y="680"/>
                            <mxPoint x="1000" y="680"/>
                        </Array>
                    </mxGeometry>
                </mxCell>
                <mxCell id="256" value="&lt;p style=&quot;margin:0px;margin-top:4px;text-align:center;&quot;&gt;&lt;i&gt;&amp;lt;&amp;lt;external&amp;gt;&amp;gt;&lt;/i&gt;&lt;br&gt;&lt;b&gt;OpenAI&lt;/b&gt;&lt;/p&gt;&lt;hr size=&quot;1&quot;&gt;&lt;p style=&quot;margin:0px;margin-left:4px;&quot;&gt;&lt;br&gt;&lt;/p&gt;&lt;hr size=&quot;1&quot;&gt;&lt;p style=&quot;margin:0px;margin-left:4px;&quot;&gt;+ chat.completions.create(&lt;/p&gt;&lt;p style=&quot;margin:0px;margin-left:4px;&quot;&gt;&lt;span style=&quot;&quot;&gt;&#9;&lt;/span&gt;&lt;span style=&quot;white-space: pre;&quot;&gt;&#9;&lt;/span&gt;model: str,&amp;nbsp;&lt;/p&gt;&lt;p style=&quot;margin:0px;margin-left:4px;&quot;&gt;&lt;span style=&quot;&quot;&gt;&#9;&lt;/span&gt;&lt;span style=&quot;white-space: pre;&quot;&gt;&#9;&lt;/span&gt;messages: list[dict{str:str}]&lt;/p&gt;&lt;p style=&quot;margin:0px;margin-left:4px;&quot;&gt;&lt;span style=&quot;&quot;&gt;&#9;&lt;/span&gt;&lt;span style=&quot;white-space: pre;&quot;&gt;&#9;&lt;/span&gt;) -&amp;gt; str&lt;/p&gt;" style="verticalAlign=top;align=left;overflow=fill;fontSize=12;fontFamily=Helvetica;html=1;" vertex="1" parent="1">
                    <mxGeometry x="1180" y="630" width="297" height="140" as="geometry"/>
                </mxCell>
                <mxCell id="258" value="1" style="text;html=1;align=center;verticalAlign=middle;resizable=0;points=[];autosize=1;strokeColor=none;fillColor=none;" vertex="1" parent="1">
                    <mxGeometry x="1150" y="650" width="30" height="30" as="geometry"/>
                </mxCell>
                <mxCell id="259" value="1" style="text;html=1;align=center;verticalAlign=middle;resizable=0;points=[];autosize=1;strokeColor=none;fillColor=none;" vertex="1" parent="1">
                    <mxGeometry x="958" y="650" width="30" height="30" as="geometry"/>
                </mxCell>
                <mxCell id="260" value="client" style="text;html=1;align=center;verticalAlign=middle;resizable=0;points=[];autosize=1;strokeColor=none;fillColor=none;" vertex="1" parent="1">
                    <mxGeometry x="1130" y="680" width="50" height="30" as="geometry"/>
                </mxCell>
                <mxCell id="262" value="login_manager" style="text;html=1;align=center;verticalAlign=middle;resizable=0;points=[];autosize=1;strokeColor=none;fillColor=none;" vertex="1" parent="1">
                    <mxGeometry x="-900" y="-90" width="100" height="30" as="geometry"/>
                </mxCell>
            </root>
        </mxGraphModel>
    </diagram>
</mxfile>